<?xml version="1.0" standalone="no"?>
<!DOCTYPE svg PUBLIC "-//W3C//DTD SVG 20010904//EN"
 "http://www.w3.org/TR/2001/REC-SVG-20010904/DTD/svg10.dtd">
<svg version="1.0" xmlns="http://www.w3.org/2000/svg"
 width="400.000000pt" height="400.000000pt" viewBox="0 0 400.000000 400.000000"
 preserveAspectRatio="xMidYMid meet">
<metadata>
Created by potrace 1.11, written by Peter Selinger 2001-2013
</metadata>
<g transform="translate(0.000000,400.000000) scale(0.100000,-0.100000)"
fill="#000000" stroke="none">
<path d="M2273 3506 c-35 -39 -89 -101 -120 -138 -32 -36 -64 -69 -70 -72 -13
-5 -59 60 -143 202 -23 39 -45 72 -49 72 -4 0 -29 -68 -56 -151 -28 -83 -55
-153 -62 -156 -7 -3 -45 18 -85 47 -179 127 -229 160 -237 160 -5 0 -4 -21 1
-47 9 -45 21 -115 35 -205 7 -48 -3 -48 -61 -4 -60 46 -156 100 -163 92 -4 -3
5 -19 20 -34 26 -27 93 -161 118 -237 7 -22 14 -41 15 -43 1 -2 36 13 77 32
143 69 257 103 437 131 154 23 295 16 494 -25 27 -5 51 -9 52 -7 2 2 8 34 14
73 12 85 35 176 57 221 8 19 14 36 11 38 -3 4 -98 -87 -166 -161 -7 -8 -17
-14 -21 -14 -9 0 -21 123 -21 221 0 37 -3 70 -7 72 -5 3 -36 -27 -70 -67z"/>
<path d="M2005 3074 c-123 -8 -309 -53 -435 -106 -63 -26 -75 -39 -42 -44 34
-6 84 -43 115 -86 23 -32 25 -40 12 -44 -9 -4 -24 1 -33 9 -22 20 -90 31 -135
23 -52 -10 -104 -68 -117 -130 -12 -59 0 -155 25 -192 34 -52 5 -61 -42 -11
-54 57 -67 93 -68 187 0 47 4 96 8 108 8 21 7 23 -10 14 -29 -16 -208 -198
-256 -260 -49 -65 -127 -193 -127 -209 0 -13 33 -23 75 -23 57 -1 62 -14 23
-62 -95 -116 -201 -366 -232 -543 -15 -90 -18 -89 116 -45 51 17 95 27 100 22
5 -5 3 -22 -3 -38 -19 -46 -16 -409 4 -517 27 -144 66 -256 94 -264 28 -9 283
274 351 389 9 15 20 28 24 28 49 0 75 -349 42 -570 -9 -58 -18 -122 -21 -143
l-5 -37 65 -30 c120 -54 206 -71 360 -71 76 0 162 5 190 11 150 35 279 85 376
147 29 19 54 33 56 31 6 -7 34 -96 40 -131 4 -20 9 -37 12 -37 11 0 72 51 160
135 186 177 284 371 317 625 3 23 36 43 36 23 0 -12 69 -93 79 -93 7 0 38 105
53 180 29 154 27 379 -6 523 -30 136 -110 326 -177 423 -16 23 -29 47 -29 52
0 10 -33 42 -44 42 -4 0 -4 -9 -1 -20 12 -38 -22 -34 -57 5 -48 55 -51 62 -32
89 15 24 15 28 -3 63 -22 47 -50 53 -91 18 l-30 -25 -45 30 c-54 36 -79 40
-50 8 11 -13 29 -39 41 -58 11 -19 57 -66 100 -105 72 -62 98 -92 90 -101 -2
-1 -28 4 -58 13 -64 17 -180 11 -235 -11 l-35 -15 -100 102 c-108 111 -115
127 -80 185 19 31 19 32 1 32 -10 0 -36 -12 -57 -26 -30 -21 -41 -24 -54 -15
-36 27 -161 81 -188 81 -16 0 -48 -7 -71 -15 -44 -15 -131 -71 -131 -83 0 -4
26 -21 58 -36 48 -24 75 -29 175 -36 132 -8 117 -1 240 -119 82 -80 98 -110
50 -89 -17 7 -111 14 -233 18 -189 5 -208 7 -250 29 -81 42 -135 106 -150 176
-5 26 -11 31 -53 39 -26 5 -47 15 -47 22 0 18 77 81 133 110 26 13 47 28 47
33 0 5 -12 17 -27 26 l-27 18 30 24 c50 42 198 109 292 132 l89 23 59 -31 c33
-17 95 -55 139 -85 44 -30 83 -52 86 -50 3 2 14 31 23 64 9 33 20 60 23 60 26
0 190 -109 281 -188 64 -55 74 -55 45 1 -9 18 -26 70 -38 117 -20 81 -24 87
-71 123 -27 21 -85 55 -129 76 -77 38 -192 77 -200 69 -3 -2 2 -26 10 -53 8
-26 15 -52 15 -57 0 -21 -31 -3 -86 51 -33 32 -71 65 -85 74 -26 17 -158 27
-264 21z m560 -945 c17 -11 56 -33 88 -50 l57 -29 0 -83 c0 -51 -5 -89 -12
-99 -23 -28 -176 -135 -234 -164 -31 -15 -80 -29 -108 -32 l-51 -4 -38 73
c-20 41 -53 101 -72 134 -19 33 -34 65 -34 70 -1 22 203 145 309 186 59 22 60
22 95 -2z m379 -7 c17 -28 46 -173 46 -232 0 -80 -27 -190 -46 -190 -8 0 -21
15 -30 33 -9 17 -37 56 -62 85 l-45 52 -1 87 c-2 94 -6 86 69 142 41 31 60 37
69 23z m-138 -430 c19 -12 61 -86 69 -120 12 -56 -25 -149 -96 -237 -63 -79
-75 -75 -83 32 -3 48 -8 88 -10 90 -2 2 -24 -10 -49 -26 -57 -39 -155 -77
-166 -65 -17 19 -81 144 -81 159 0 8 9 15 19 15 28 0 161 71 213 113 25 21 57
37 78 40 61 7 95 7 106 -1z"/>
</g>
</svg>
